HIERARCHY
ROOT Hips
{
	OFFSET 34.090599 -78.666916 98.831787
	CHANNELS 6 Xposition Yposition Zposition Xrotation Yrotation Zrotation
	JOINT spine
	{
		OFFSET 0.000000 -0.507027 8.817039
		CHANNELS 3 Xrotation Yrotation Zrotation
		JOINT spine1
		{
			OFFSET 0.000000 -0.000008 10.776604
			CHANNELS 3 Xrotation Yrotation Zrotation
			JOINT spine2
			{
				OFFSET 0.000000 0.000000 10.325897
				CHANNELS 3 Xrotation Yrotation Zrotation
				JOINT Neck
				{
					OFFSET 0.000000 -1.263947 26.511002
					CHANNELS 3 Xrotation Yrotation Zrotation
					JOINT Head
					{
						OFFSET 0.000000 0.000000 8.009659
						CHANNELS 3 Xrotation Yrotation Zrotation
						End Site
						{
							OFFSET 0.000000 6.393852 19.387894
						}
					}
				}
				JOINT RightShoulder
				{
					OFFSET -4.347950 0.605423 11.151199
					CHANNELS 3 Xrotation Yrotation Zrotation
					JOINT RightArm
					{
						OFFSET 0.000000 0.000000 14.625793
						CHANNELS 3 Xrotation Yrotation Zrotation
						JOINT RightArmRoll
						{
							OFFSET 0.000000 0.000000 7.383408
							CHANNELS 3 Xrotation Yrotation Zrotation
							JOINT RightForeArm
							{
								OFFSET 0.000000 -0.000008 21.505203
								CHANNELS 3 Xrotation Yrotation Zrotation
								JOINT RightForeArmRoll
								{
									OFFSET 0.000000 0.000000 8.285324
									CHANNELS 3 Xrotation Yrotation Zrotation
									JOINT RightHand
									{
										OFFSET 0.000000 0.000000 16.626801
										CHANNELS 3 Xrotation Yrotation Zrotation
										End Site
										{
											OFFSET 0.000000 0.000000 0.100006
										}
									}
								}
							}
						}
					}
				}
				JOINT LeftShoulder
				{
					OFFSET 4.347950 0.605423 11.151199
					CHANNELS 3 Xrotation Yrotation Zrotation
					JOINT LeftArm
					{
						OFFSET 0.000000 0.000000 14.625793
						CHANNELS 3 Xrotation Yrotation Zrotation
						JOINT LeftArmRoll
						{
							OFFSET 0.000000 0.000000 7.383408
							CHANNELS 3 Xrotation Yrotation Zrotation
							JOINT LeftForeArm
							{
								OFFSET 0.000000 -0.000008 21.505203
								CHANNELS 3 Xrotation Yrotation Zrotation
								JOINT LeftForeArmRoll
								{
									OFFSET 0.000000 0.000000 8.285324
									CHANNELS 3 Xrotation Yrotation Zrotation
									JOINT LeftHand
									{
										OFFSET 0.000000 0.000000 16.626801
										CHANNELS 3 Xrotation Yrotation Zrotation
										End Site
										{
											OFFSET 0.000000 0.000000 0.100006
										}
									}
								}
							}
						}
					}
				}
			}
		}
	}
	JOINT RightUpLeg
	{
		OFFSET -7.815100 1.202171 -1.433090
		CHANNELS 3 Xrotation Yrotation Zrotation
		JOINT RightUpLegRoll
		{
			OFFSET 0.000000 0.000000 19.495895
			CHANNELS 3 Xrotation Yrotation Zrotation
			JOINT RightLeg
			{
				OFFSET 0.000000 0.000000 -24.142700
				CHANNELS 3 Xrotation Yrotation Zrotation
				JOINT RightLegRoll
				{
					OFFSET 0.000000 0.000000 24.221703
					CHANNELS 3 Xrotation Yrotation Zrotation
					JOINT RightFoot
					{
						OFFSET 0.000000 -0.000008 20.160500
						CHANNELS 3 Xrotation Yrotation Zrotation
						JOINT RightToeBase
						{
							OFFSET 0.000000 0.000000 16.853195
							CHANNELS 3 Xrotation Yrotation Zrotation
							End Site
							{
								OFFSET 0.007143 0.940781 8.161865
							}
						}
					}
				}
			}
		}
	}
	JOINT LeftUpLeg
	{
		OFFSET 7.815102 1.202171 -1.433090
		CHANNELS 3 Xrotation Yrotation Zrotation
		JOINT LeftUpLegRoll
		{
			OFFSET 0.000000 0.000000 19.496002
			CHANNELS 3 Xrotation Yrotation Zrotation
			JOINT LeftLeg
			{
				OFFSET 0.000000 -0.000008 24.142593
				CHANNELS 3 Xrotation Yrotation Zrotation
				JOINT LeftLegRoll
				{
					OFFSET 0.000000 -0.000008 24.445602
					CHANNELS 3 Xrotation Yrotation Zrotation
					JOINT LeftFoot
					{
						OFFSET 0.000000 0.000000 19.936600
						CHANNELS 3 Xrotation Yrotation Zrotation
						JOINT LeftToeBase
						{
							OFFSET 0.000000 0.000000 16.853195
							CHANNELS 3 Xrotation Yrotation Zrotation
							End Site
							{
								OFFSET -0.032013 0.940781 8.161865
							}
						}
					}
				}
			}
		}
	}
}
MOTION
Frames: 4
Frame Time: 0.041667
51.351196 -17.546612 100.879982 0.003523 0.004308 -0.012172 -2.480768 -0.000000 0.000000 -0.958717 0.000000 -0.000000 0.686358 -0.000000 0.000000 19.108298 -0.026355 -0.001584 2.010639 0.003901 -0.008933 -13.533129 -33.744847 -14.896272 33.287569 -45.033886 75.893114 0.000007 -0.000017 -0.000002 1.408711 2.953510 -0.060872 0.000001 -0.000012 -3.003577 -5.000219 -7.998771 0.000184 -15.130440 39.604760 17.310621 28.155355 50.145166 -66.334982 0.000001 -0.000003 0.000005 2.305022 -4.299721 1.079533 0.000000 -0.000000 2.999991 -5.000198 7.998702 -0.000153 -1.540579 -177.650843 0.023942 -179.999991 0.000005 -1.069002 173.486204 -2.164950 -0.479136 0.000000 -0.000001 0.091806 69.334739 6.907337 2.066917 25.456904 -7.353115 -0.000002 -1.310968 176.761853 2.245594 -0.000005 -0.000004 -1.067810 -6.297789 2.292079 0.388264 -0.000004 0.000001 -0.088836 69.436700 -6.908695 -2.052309 25.456873 7.347652 0.000007 
51.357697 -17.536324 100.878990 0.004814 0.004581 -0.012485 -2.480767 -0.000000 0.000000 -0.958717 0.000000 -0.000000 0.686358 -0.000000 0.000000 19.105298 -0.029457 -0.002069 2.007669 0.004941 -0.009724 -13.534356 -33.743426 -14.895507 33.283536 -45.032267 75.891441 0.000007 -0.000017 -0.000002 1.410324 2.954637 -0.060840 0.000001 -0.000012 -3.003575 -5.000219 -7.998772 0.000182 -15.132296 39.604220 17.310804 28.157868 50.146983 -66.338636 0.000001 -0.000003 0.000004 2.303712 -4.301324 1.079548 0.000000 -0.000000 2.999992 -5.000198 7.998701 -0.000155 -1.545361 -177.651854 0.022504 -179.999991 0.000005 -1.069001 173.480166 -2.162929 -0.479136 0.000000 -0.000001 0.091783 69.336003 6.907328 2.066935 25.456901 -7.353116 -0.000002 -1.313060 176.761853 2.245922 -0.000005 -0.000004 -1.067810 -6.298728 2.291737 0.388157 -0.000004 0.000001 -0.088835 69.436277 -6.908679 -2.052330 25.456877 7.347653 0.000007 
51.356697 -17.538013 100.878998 0.006019 0.004934 -0.012794 -2.480767 -0.000000 0.000000 -0.958717 -0.000000 -0.000000 0.686358 -0.000000 -0.000000 19.102400 -0.032868 -0.002370 2.004607 0.006322 -0.010461 -13.535583 -33.741995 -14.894868 33.279615 -45.030809 75.889911 0.000006 -0.000017 -0.000003 1.411880 2.955775 -0.060809 0.000002 -0.000012 -3.003577 -5.000220 -7.998771 0.000184 -15.134080 39.603373 17.311038 28.160404 50.149093 -66.342003 0.000001 -0.000003 0.000003 2.302714 -4.302656 1.079551 0.000000 -0.000000 2.999988 -5.000197 7.998702 -0.000159 -1.549504 -177.651854 0.021071 -179.999991 0.000005 -1.069001 173.475180 -2.160926 -0.479097 0.000001 -0.000001 0.091759 69.336850 6.907332 2.066983 25.456906 -7.353114 -0.000002 -1.315052 176.760856 2.246148 -0.000005 -0.000004 -1.067810 -6.299648 2.291374 0.388057 -0.000004 0.000001 -0.088835 69.435744 -6.908689 -2.052268 25.456871 7.347654 0.000007 
51.352398 -17.546513 100.882996 0.007102 0.005390 -0.013127 -2.480771 0.000000 0.000000 -0.958717 0.000000 -0.000000 0.686358 -0.000000 -0.000000 19.099601 -0.036632 -0.002434 2.001459 0.008094 -0.011134 -13.536587 -33.740697 -14.894243 33.275821 -45.029310 75.888483 0.000006 -0.000017 -0.000002 1.413312 2.956931 -0.060781 -0.000000 -0.000013 -3.003580 -5.000219 -7.998771 0.000186 -15.135677 39.602277 17.311295 28.162682 50.151586 -66.344756 0.000001 -0.000003 0.000006 2.302105 -4.303677 1.079555 0.000001 -0.000000 2.999991 -5.000198 7.998703 -0.000155 -1.552819 -177.652865 0.019704 -179.999991 0.000005 -1.069002 173.471464 -2.159919 -0.479124 0.000000 -0.000001 0.091736 69.337164 6.907311 2.066961 25.456904 -7.353115 -0.000002 -1.316850 176.759859 2.246182 -0.000005 -0.000004 -1.067810 -6.300496 2.290993 0.387960 -0.000004 0.000001 -0.088835 69.435321 -6.908671 -2.052289 25.456877 7.347652 0.000006 
